<svg xmlns="http://www.w3.org/2000/svg" viewBox="0 0 1600 2200" preserveAspectRatio="xMidYMid slice">
  <defs>
    <linearGradient id="bg" x1="0" x2="0" y1="0" y2="1">
      <stop offset="0%" stop-color="#626f75"/>
      <stop offset="45%" stop-color="#394247"/>
      <stop offset="100%" stop-color="#181d22"/>
    </linearGradient>
    <linearGradient id="sideWall" x1="0" x2="1" y1="0" y2="1">
      <stop offset="0%" stop-color="#46607e"/>
      <stop offset="55%" stop-color="#28384d"/>
      <stop offset="100%" stop-color="#1a2332"/>
    </linearGradient>
    <linearGradient id="torchGlow" x1="0" x2="0" y1="0" y2="1">
      <stop offset="0%" stop-color="#ff9d57" stop-opacity=".65"/>
      <stop offset="40%" stop-color="#7d251f" stop-opacity=".18"/>
      <stop offset="100%" stop-color="#000" stop-opacity="0"/>
    </linearGradient>
    <filter id="grain" x="-20%" y="-20%" width="140%" height="140%">
      <feTurbulence type="fractalNoise" baseFrequency="0.95" numOctaves="2" seed="8" result="noise"/>
      <feColorMatrix in="noise" type="saturate" values="0"/>
      <feComponentTransfer>
        <feFuncA type="table" tableValues="0 0 .08 .16"/>
      </feComponentTransfer>
    </filter>
    <filter id="softNoise" x="-20%" y="-20%" width="140%" height="140%">
      <feTurbulence type="fractalNoise" baseFrequency="0.012 0.02" numOctaves="3" seed="11"/>
      <feDisplacementMap in="SourceGraphic" scale="8"/>
    </filter>
    <filter id="roughStroke" x="-20%" y="-20%" width="140%" height="140%">
      <feTurbulence type="fractalNoise" baseFrequency="0.02" numOctaves="2" seed="17" result="noise"/>
      <feDisplacementMap in="SourceGraphic" in2="noise" scale="10"/>
    </filter>
    <filter id="blotch" x="-20%" y="-20%" width="140%" height="140%">
      <feTurbulence type="fractalNoise" baseFrequency="0.035" numOctaves="3" seed="21" result="cloud"/>
      <feColorMatrix in="cloud" type="saturate" values="0"/>
      <feComponentTransfer>
        <feFuncA type="table" tableValues="0 0 .16 .34"/>
      </feComponentTransfer>
    </filter>
  </defs>

  <rect width="1600" height="2200" fill="url(#bg)"/>
  <rect width="1600" height="2200" fill="url(#torchGlow)"/>

  <g opacity=".98">
    <rect x="0" y="0" width="108" height="2200" fill="url(#sideWall)"/>
    <rect x="1492" y="0" width="108" height="2200" fill="url(#sideWall)"/>
    <rect x="108" y="0" width="16" height="2200" fill="#111923"/>
    <rect x="1476" y="0" width="16" height="2200" fill="#111923"/>
    <rect x="122" y="0" width="10" height="2200" fill="#6785aa" opacity=".35"/>
    <rect x="1468" y="0" width="10" height="2200" fill="#6785aa" opacity=".35"/>
  </g>

  <g opacity=".35" filter="url(#roughStroke)">
    <path d="M150 120h1300v120H150z" fill="#291c1e"/>
    <path d="M214 164c112 22 174 30 284 18 94-10 166-32 262-28 114 6 168 40 278 34 92-6 170-30 266-18 48 6 96 16 146 32v74H150z" fill="#3a2a2d"/>
    <path d="M320 176c54 20 110 26 168 20 66-8 136-30 210-36 84-8 168 8 252 26 86 18 166 30 250 18 52-8 104-18 156-28l38 22c-58 22-118 42-192 48-94 10-180-6-270-24-92-18-182-34-274-20-86 12-156 42-242 46-84 4-154-18-222-44z" fill="#171416"/>
    <path d="M714 152c58-18 140 8 182 44 40 36 50 84 26 116-22 30-70 44-132 42-66-2-116-20-142-56-30-38-18-92 20-118 12-8 28-18 46-28z" fill="#4d1712"/>
    <ellipse cx="798" cy="214" rx="112" ry="64" fill="#120d0f"/>
    <ellipse cx="798" cy="214" rx="78" ry="44" fill="#2b7a57"/>
    <ellipse cx="806" cy="212" rx="38" ry="18" fill="#b8e59b"/>
    <ellipse cx="802" cy="214" rx="16" ry="36" fill="#0b0c0b"/>
    <circle cx="762" cy="196" r="10" fill="#fff" opacity=".7"/>
    <path d="M174 170c34 52 30 74 14 136-10 38-12 70 10 120" stroke="#521313" stroke-width="16" fill="none" stroke-linecap="round"/>
    <path d="M1420 172c-26 48-22 84-8 136 12 48 10 82-12 124" stroke="#521313" stroke-width="14" fill="none" stroke-linecap="round"/>
  </g>

  <g opacity=".24" filter="url(#blotch)">
    <rect x="132" y="40" width="1260" height="2120" fill="#000"/>
  </g>

  <g opacity=".32" stroke="#182028" stroke-width="5">
    <path d="M78 0v2200"/>
    <path d="M1522 0v2200"/>
    <path d="M54 160c40 80 22 200 14 320s12 200 6 324-22 230-8 340 10 262-18 412"/>
    <path d="M1548 110c-34 112-20 216-10 328s-20 198-10 308 22 210 10 324-8 252 12 408"/>
  </g>

  <g fill="#2b3439" stroke="#1c2429" stroke-width="5" opacity=".96" filter="url(#softNoise)">
    <rect x="132" y="40" width="1260" height="2120" rx="8"/>
  </g>

  <g opacity=".44" stroke="#141b20" stroke-width="6" filter="url(#roughStroke)">
    <path d="M132 150c224-10 428-8 650-6 204 2 406-2 610-12"/>
    <path d="M132 332c246-10 452-14 652-6 210 8 414 2 608-10"/>
    <path d="M132 504c216-8 438-6 648-2 220 4 420 0 612-12"/>
    <path d="M132 672c220-14 438-8 650-2 212 6 414 4 610-8"/>
    <path d="M132 848c238-12 444-14 656-6 208 8 404 8 604-10"/>
    <path d="M132 1024c224-10 434-8 652-6 216 2 418 0 608-10"/>
    <path d="M132 1198c228-12 442-12 654-6 206 6 406 4 606-10"/>
    <path d="M132 1370c220-10 434-10 654-4 214 6 412 0 606-12"/>
    <path d="M132 1542c224-12 444-8 656-4 208 4 406 0 604-14"/>
    <path d="M132 1718c232-10 446-8 654-4 208 4 402 0 606-10"/>
    <path d="M132 1892c220-10 436-8 650-4 208 4 412-2 610-14"/>
    <path d="M132 2064c232-12 444-8 658-6 208 2 404-2 602-12"/>
    <path d="M248 42c8 386 12 772 6 1158-4 324-2 640 8 958"/>
    <path d="M422 42c-6 280-10 566-2 850 8 426 6 842-4 1268"/>
    <path d="M590 42c2 372-4 754 4 1126 6 332 4 664-6 992"/>
    <path d="M770 42c-4 318 2 636 8 954 6 388 0 780-8 1164"/>
    <path d="M948 42c8 352 4 706-2 1058-8 372-4 744 6 1112"/>
    <path d="M1118 42c-4 310-4 628 2 944 6 390 0 784-10 1176"/>
    <path d="M1284 42c6 350 8 706 4 1056-4 368 0 738 10 1102"/>
  </g>

  <g opacity=".18" fill="#7d8a90" filter="url(#roughStroke)">
    <path d="M150 114h210v50H150z"/>
    <path d="M834 286h176v34H834z"/>
    <path d="M462 600h236v44H462z"/>
    <path d="M1072 910h164v42h-164z"/>
    <path d="M286 1286h244v38H286z"/>
    <path d="M890 1668h218v52H890z"/>
  </g>

  <g opacity=".3" stroke="#11181d" stroke-width="7" fill="none" stroke-linecap="round" filter="url(#roughStroke)">
    <path d="M208 214c40 34 28 72 8 114-18 38-10 74 12 104"/>
    <path d="M488 514c54 20 58 66 18 116-24 30-18 52 12 86"/>
    <path d="M886 346c64 18 64 60 20 120-22 28-14 70 26 118"/>
    <path d="M1136 826c42 24 42 58 16 88-28 34-30 68-4 112"/>
    <path d="M382 1092c52 18 64 54 24 108-18 24-16 58 10 92"/>
    <path d="M994 1216c66 16 76 56 34 118-18 26-12 70 22 124"/>
    <path d="M238 1702c54 16 66 50 24 100-20 24-12 58 20 102"/>
    <path d="M1186 1840c46 18 50 54 14 96-28 30-22 68 8 112"/>
  </g>

  <g opacity=".22" fill="#12171b" filter="url(#roughStroke)">
    <path d="M188 252c46-18 82 22 78 72-6 54-70 74-118 38-42-32-20-94 40-110z"/>
    <path d="M1098 494c60-22 106 24 98 82-8 54-70 88-130 54-46-26-30-108 32-136z"/>
    <path d="M514 886c52-16 94 20 86 68-8 46-64 74-114 48-48-24-32-94 28-116z"/>
    <path d="M930 1418c64-18 110 26 98 84-10 56-76 84-132 50-46-28-24-110 34-134z"/>
    <path d="M334 1910c60-20 104 20 94 76-10 56-72 84-126 56-46-24-30-102 32-132z"/>
  </g>

  <g opacity=".26" fill="#0c1013" filter="url(#roughStroke)">
    <path d="M168 418c64-24 132 10 138 76 6 74-68 120-154 104-72-14-102-84-60-136 18-22 44-36 76-44z"/>
    <path d="M1194 602c76-18 140 24 138 98-2 78-80 126-166 102-70-20-90-86-48-144 20-28 42-42 76-56z"/>
    <path d="M436 1036c88-18 158 30 152 110-6 72-78 130-162 114-78-14-118-90-74-154 22-32 44-48 84-70z"/>
    <path d="M938 1520c92-22 162 24 162 110 0 78-80 142-176 124-82-16-118-100-70-166 24-32 42-48 84-68z"/>
    <path d="M278 1836c74-18 128 24 126 88-2 70-68 114-144 100-72-14-102-84-62-136 18-24 36-34 80-52z"/>
  </g>

  <g opacity=".18" fill="#29503b" filter="url(#roughStroke)">
    <path d="M188 342c42-10 78 14 84 52 6 42-30 80-82 84-44 2-74-28-72-68 2-34 28-58 70-68z"/>
    <path d="M1048 948c48-12 88 16 92 60 4 48-40 90-96 86-50-2-80-38-72-82 6-32 26-48 76-64z"/>
    <path d="M570 1644c44-10 82 18 80 58-2 48-42 86-92 80-48-4-74-42-62-82 8-26 24-38 74-56z"/>
  </g>

  <g opacity=".14" fill="#7a1010" filter="url(#roughStroke)">
    <path d="M144 118h1312v64H144z"/>
    <path d="M216 178c0 74-12 86-22 154-8 52 22 90 16 136"/>
    <path d="M1374 182c0 58 18 94 10 144-10 64-34 88-30 146"/>
  </g>

  <g opacity=".22" fill="#2a0e0e" filter="url(#roughStroke)">
    <path d="M162 160c28 74 14 124-10 190-18 50-14 86 8 136 20 48 22 86 4 138"/>
    <path d="M1434 168c-20 66-18 114 6 180 18 50 18 96-6 148-18 42-18 80-2 130"/>
    <path d="M748 178c26 32 28 66 12 106-12 30-14 64-4 100 10 34 8 64-6 94"/>
  </g>

  <g opacity=".22" fill="#88a9d1" filter="url(#roughStroke)">
    <path d="M8 112h74v198H8z"/>
    <path d="M1518 246h58v210h-58z"/>
    <path d="M14 804h66v236H14z"/>
    <path d="M1522 1360h54v278h-54z"/>
    <path d="M18 1948h64v184H18z"/>
  </g>

  <g opacity=".26" stroke="#0c1116" stroke-width="9" fill="none" stroke-linecap="round" filter="url(#roughStroke)">
    <path d="M116 84c20 64 16 120-6 178-14 36-18 90 4 142"/>
    <path d="M1482 98c-22 56-20 120-2 176 14 44 12 90-8 146"/>
    <path d="M92 594c18 64 14 134-8 190-16 40-20 98 4 162"/>
    <path d="M1504 702c-14 76-8 146 10 212 14 50 10 118-12 182"/>
    <path d="M96 1332c18 60 20 126-6 186-20 44-18 100 2 154"/>
    <path d="M1490 1502c-22 72-20 140 4 198 16 40 16 96-6 154"/>
  </g>

  <g opacity=".4" stroke="#090c0f" stroke-width="12" fill="none" stroke-linecap="round" filter="url(#roughStroke)">
    <path d="M188 210c42 32 34 76 8 126-20 38-26 82-12 132"/>
    <path d="M520 566c52 24 54 64 22 120-20 34-18 72 6 120"/>
    <path d="M894 372c64 18 70 62 26 128-22 32-18 76 10 126"/>
    <path d="M1178 892c48 20 52 58 18 110-24 34-26 74-6 124"/>
    <path d="M368 1164c54 22 62 62 22 126-20 34-20 80 8 134"/>
    <path d="M1010 1332c62 18 72 62 30 130-26 40-18 86 14 138"/>
    <path d="M246 1764c58 18 68 54 26 116-24 36-18 76 10 126"/>
    <path d="M1180 1860c46 22 54 54 20 102-28 40-26 82 0 130"/>
  </g>

  <g filter="url(#grain)">
    <rect width="1600" height="2200" fill="#000" opacity=".8"/>
  </g>
</svg>
